<svg xmlns="http://www.w3.org/2000/svg" viewBox="0 0 512 512" width="512" height="512">
  <defs>
    <linearGradient id="bulbG" x1="0%" y1="0%" x2="100%" y2="100%">
      <stop offset="0%" style="stop-color:#00A8E8"/>
      <stop offset="40%" style="stop-color:#0077B6"/>
      <stop offset="100%" style="stop-color:#2E9B5F"/>
    </linearGradient>
  </defs>
  <rect width="512" height="512" rx="64" fill="white"/>
  <g transform="translate(128, 48)">
    <path d="M128 20C83.82 20 48 55.82 48 100c0 28.72 15.12 53.87 37.8 68.08C88.38 169.8 90 174.92 90 181v8c0 4.42 3.58 8 8 8h60c4.42 0 8-3.58 8-8v-8c0-6.08 1.62-11.2 4.2-12.92C192.88 153.87 208 128.72 208 100 208 55.82 172.18 20 128 20z" fill="url(#bulbG)"/>
    <line x1="128" y1="28" x2="128" y2="176" stroke="white" stroke-width="5" opacity="0.5"/>
    <line x1="55" y1="100" x2="201" y2="100" stroke="white" stroke-width="5" opacity="0.5"/>
    <circle cx="128" cy="100" r="10" fill="white" opacity="0.9"/>
    <rect x="96" y="204" width="64" height="14" rx="7" fill="#005F8C"/>
    <rect x="104" y="224" width="48" height="12" rx="6" fill="#005F8C"/>
  </g>
  <text x="256" y="370" text-anchor="middle" font-family="'Space Grotesk','Inter',sans-serif" font-weight="700" font-size="60">
    <tspan fill="#0077B6">Clarity</tspan><tspan fill="#2E9B5F">Pro</tspan>
  </text>
  <text x="256" y="405" text-anchor="middle" font-family="'Inter',sans-serif" font-weight="400" font-size="24" fill="#5A6577">Make decisions with confidence</text>
</svg>
