<svg xmlns="http://www.w3.org/2000/svg" viewBox="0 0 192 192" width="192" height="192">
  <defs>
    <linearGradient id="bulbGrad" x1="0%" y1="0%" x2="100%" y2="100%">
      <stop offset="0%" style="stop-color:#00A8E8"/>
      <stop offset="40%" style="stop-color:#0077B6"/>
      <stop offset="100%" style="stop-color:#2E9B5F"/>
    </linearGradient>
  </defs>
  <rect width="192" height="192" rx="24" fill="white"/>
  <g transform="translate(48, 24)">
    <!-- Bulb body -->
    <path d="M48 8C31.43 8 18 21.43 18 38c0 10.77 5.67 20.2 14.18 25.53C33.93 64.75 34.5 67.04 34.5 69.5v3c0 1.66 1.34 3 3 3h21c1.66 0 3-1.34 3-3v-3c0-2.46.57-4.75 2.32-5.97C72.33 58.2 78 48.77 78 38 78 21.43 64.57 8 48 8z" fill="url(#bulbGrad)"/>
    <!-- Quadrant lines -->
    <line x1="48" y1="11" x2="48" y2="66" stroke="white" stroke-width="2.5" opacity="0.55"/>
    <line x1="21" y1="38" x2="75" y2="38" stroke="white" stroke-width="2.5" opacity="0.55"/>
    <!-- Center sparkle -->
    <circle cx="48" cy="38" r="4" fill="white" opacity="0.9"/>
    <!-- Base -->
    <rect x="36" y="78" width="24" height="5" rx="2.5" fill="#005F8C"/>
    <rect x="39" y="86" width="18" height="4" rx="2" fill="#005F8C"/>
  </g>
  <!-- Text -->
  <text x="96" y="146" text-anchor="middle" font-family="'Space Grotesk','Inter',sans-serif" font-weight="700" font-size="22" fill="#0077B6">Clarity</text>
  <text x="96" y="146" text-anchor="middle" font-family="'Space Grotesk','Inter',sans-serif" font-weight="700" font-size="22">
    <tspan fill="#0077B6">Clarity</tspan><tspan fill="#2E9B5F">Pro</tspan>
  </text>
</svg>
